<svg width="20" height="20" viewBox="0 0 20 20" fill="none" xmlns="http://www.w3.org/2000/svg">
<g id="24 / basic / camera-no">
<path id="icon" fill-rule="evenodd" clip-rule="evenodd" d="M2.25461 1.07739L1.0761 2.2559L3.82017 4.99997H3.33203C1.95132 4.99997 0.832031 6.11926 0.832031 7.49997V15C0.832031 16.3807 1.95132 17.5 3.33203 17.5H16.3202L17.7428 18.9226L18.9213 17.7441L2.25461 1.07739ZM14.6535 15.8333L12.7675 13.9473C12.0167 14.6155 11.039 15 9.9987 15C7.69751 15 5.83203 13.1345 5.83203 10.8333C5.83203 9.79238 6.217 8.8147 6.88469 8.0645L5.48683 6.66664H3.33203C2.87179 6.66664 2.4987 7.03974 2.4987 7.49997V15C2.4987 15.4602 2.87179 15.8333 3.33203 15.8333H14.6535ZM8.06653 9.24633C7.70488 9.68585 7.4987 10.242 7.4987 10.8333C7.4987 12.214 8.61799 13.3333 9.9987 13.3333C10.5898 13.3333 11.1458 13.1274 11.5857 12.7655L8.06653 9.24633ZM16.6654 4.99997C18.0461 4.99997 19.1654 6.11926 19.1654 7.49997V15H17.4987V7.49997C17.4987 7.03974 17.1256 6.66664 16.6654 6.66664H14.1654C13.6117 6.66664 13.2384 6.36365 12.8649 5.84435C12.7789 5.72487 12.6938 5.59441 12.5913 5.42838C12.5562 5.3715 12.4651 5.22112 12.4025 5.11792L12.3419 5.01796C11.9649 4.40141 11.7376 4.16664 11.6654 4.16664H8.33204C8.35708 4.16664 8.3487 4.17444 8.29288 4.22642L8.29288 4.22643L8.29285 4.22646C8.27705 4.24116 8.25746 4.25941 8.23376 4.28201C8.17661 4.33651 7.92378 4.59572 7.93777 4.58162C7.93215 4.58728 6.74555 3.41688 6.74555 3.41688C6.71968 3.44298 7.00075 3.15481 7.08361 3.0758C7.47198 2.70548 7.83825 2.49997 8.33204 2.49997H11.6654C12.5709 2.49997 13.073 3.01863 13.7639 4.14865L13.8338 4.26389L13.8339 4.26405L13.835 4.26588C13.8969 4.36799 13.9793 4.50391 14.0096 4.55307C14.0932 4.68856 14.1588 4.78904 14.2179 4.87112C14.2568 4.92525 14.2908 4.96826 14.3185 4.99997H16.6654ZM15.832 9.16664C16.2923 9.16664 16.6654 8.79354 16.6654 8.33331C16.6654 7.87307 16.2923 7.49997 15.832 7.49997C15.3718 7.49997 14.9987 7.87307 14.9987 8.33331C14.9987 8.79354 15.3718 9.16664 15.832 9.16664Z" fill="white"/>
</g>
</svg>
